<svg width="2048" height="2048" viewBox="0 0 2048 2048" fill="none" xmlns="http://www.w3.org/2000/svg">
<rect x="32" y="32" width="1984" height="1984" rx="198.4" fill="#0D0D0D"/>
<mask id="mask0" mask-type="alpha" maskUnits="userSpaceOnUse" x="556" y="383" width="937" height="1283">
<path d="M749.136 383H1492.5L1296.59 1665.48H556L749.136 383Z" fill="#C4C4C4"/>
</mask>
<g mask="url(#mask0)">
<g filter="url(#filter0_d)">
<path fill-rule="evenodd" clip-rule="evenodd" d="M2519.41 430.189L2482.97 451.087L2980.39 451.761L2973.64 447.042L2931.12 420.077L2886.57 403.898L2839.33 391.764L2773.86 383.674L2725.94 383L2671.27 387.719L2608.5 398.505L2564.63 411.313L2519.41 430.189ZM739.62 451.087L749.744 383.674H1118.93L1225.57 391.09L1303.86 408.617L1342.33 426.144L1378.78 451.087H739.62ZM729.497 518.499L719.373 585.237L1427.38 585.911L1419.28 518.499H729.497ZM699.124 720.736L709.923 653.324H1042.66L1032.54 720.736H699.124ZM689.001 788.148L678.877 855.561H1012.29L1021.74 788.148H689.001ZM659.305 990.385L669.429 922.973H1384.18L1349.76 956.679L1326.14 970.162L1257.29 990.385H659.305ZM648.505 1057.8L638.381 1125.21H1371.35L1357.18 1098.25L1326.81 1073.98L1284.29 1057.8H648.505ZM618.134 1260.04L628.933 1192.62H961.673L951.549 1260.04H618.134ZM608.009 1327.45L597.885 1394.86H931.3L940.749 1327.45H608.009ZM578.311 1529.68L587.76 1462.27H919.826L909.702 1529.68H578.311ZM557.389 1664.51L567.513 1597.1H898.904L888.78 1664.51H557.389ZM1127.03 788.148L1116.91 855.561H1395.65L1405.1 788.148H1127.03ZM1137.15 720.736L1142.55 687.03L1141.88 653.324H1425.35L1415.23 720.736H1137.15ZM1000.14 1597.1L989.345 1664.51H1296.44L1307.24 1597.1H1000.14ZM1010.27 1529.68L1020.39 1462.27H1328.16L1317.36 1529.68H1010.27ZM1039.97 1327.45L1030.52 1394.86H1338.96L1349.08 1327.45H1039.97ZM1050.76 1260.04L1060.89 1192.62H1370.01L1359.21 1260.04H1050.76ZM1352.46 1597.77L1334.23 1663.84H1679.12L1695.32 1597.77H1352.46ZM1835.03 1663.84L1840.43 1597.77H2176.55V1663.84H1835.03ZM1851.23 1462.95L1845.83 1530.36H2176.55V1462.95H1851.23ZM1372.03 1530.36L1390.93 1462.95H1726.37L1710.85 1530.36H1372.03ZM1428.73 1328.12L1410.5 1395.53H2176.55L2177.22 1328.12H1428.73ZM1448.3 1260.71L1467.87 1193.3H1766.87L1763.49 1208.13H1877.55L1878.23 1193.3H2177.22V1261.38L1448.3 1260.71ZM1884.3 1058.47L1880.25 1125.88H2177.22V1058.47H1884.3ZM1486.09 1125.88L1505.67 1058.47H1799.94L1783.06 1125.88H1486.09ZM1835.71 922.973H1543.46L1524.56 990.385H1818.16L1835.71 922.973ZM1891.05 922.973H2177.22V990.385H1887L1891.05 922.973ZM1899.15 788.148L1895.1 855.561H2177.22V788.148H1899.15ZM1562.36 855.561L1581.93 788.148H1874.18L1855.28 855.561H1562.36ZM1619.05 653.324L1600.16 720.736H1891.73L1907.25 670.177L1905.9 720.736H2177.22L2177.9 653.324H1619.05ZM1637.95 585.911L1656.85 518.499H2177.9V585.911H1637.95ZM1695.32 383.674L1675.75 451.087H2177.9V383.674H1695.32ZM2304.78 1597.1H2801.53L2762.39 1620.02L2696.92 1645.63L2647.65 1657.09L2568.68 1664.51H2532.24L2456.64 1658.44L2401.97 1646.31L2340.56 1622.04L2304.78 1597.1ZM2235.27 1498L2248.09 1529.68H2884.55L2908.17 1502.05L2931.12 1462.27H2227.17L2235.27 1498ZM2642.92 1394.86L2657.1 1327.45H2972.96L2956.09 1394.86H2642.92ZM2677.35 1192.62L2667.22 1260.04H2987.14L2997.94 1192.62H2677.35ZM2223.12 1394.86L2225.14 1327.45H2541.68L2534.26 1394.86H2223.12ZM2241.34 1192.62L2231.89 1260.04H2550.46L2560.58 1192.62H2241.34ZM2251.46 1125.21L2261.59 1057.8H2581.51L2571.38 1125.21H2251.46ZM2281.83 922.973L2271.71 990.385H2590.95L2601.75 922.973H2281.83ZM2292.63 855.561L2302.76 788.148H2621.33L2611.2 855.561H2292.63ZM2738.76 788.148L2727.97 855.561H3047.88L3058.01 788.148H2738.76ZM2748.21 720.736L2756.99 653.324H3068.13L3064.76 720.736H2748.21ZM2329.75 652.65L2314.91 720.736H2632.12L2646.97 652.65H2329.75ZM2356.75 585.911L2378.35 550.183L2403.32 518.499H3040.46L3051.93 542.093L3061.38 575.125L3063.4 585.911H2356.75ZM3039.78 1664.51L3049.91 1597.1H3628.32L3617.52 1664.51H3039.78ZM3070.15 1462.27L3060.03 1529.68H3637.77L3648.57 1462.27H3070.15ZM3080.28 1394.86L3089.73 1327.45H3423.14L3413.02 1394.86H3080.28ZM3110.65 1192.62L3100.53 1260.04H3433.27L3444.07 1192.62H3110.65ZM3120.77 1125.21L3130.22 1057.8H3672.19L3661.39 1125.21H3120.77ZM3692.44 922.973H3151.15L3141.7 990.385H3681.64L3692.44 922.973ZM3161.27 855.561L3170.72 788.148H3503.46L3494.01 855.561H3161.27ZM3191.64 653.324L3180.84 720.736H3514.26L3524.38 653.324H3191.64ZM3201.09 585.237L3211.22 518.499H3767.36L3757.23 585.911L3201.09 585.237ZM3231.46 383.674L3221.34 451.087H3778.16L3787.61 383.674H3231.46ZM3689.07 1664.51L3699.19 1597.1H4030.58L4020.46 1664.51H3689.07ZM3719.44 1462.27L3709.99 1529.68H4041.38L4051.5 1462.27H3719.44ZM3729.56 1394.86L3739.69 1327.45H4072.43L4062.98 1394.86H3729.56ZM3760.61 1192.62L3749.81 1260.04H4083.22L4093.35 1192.62H3760.61ZM3770.06 1125.21L3780.18 1057.8H4415.97L4458.49 1073.98L4488.86 1098.25L4503.03 1125.21H3770.06ZM4515.86 922.973H3801.1L3790.98 990.385H4388.97L4457.81 970.162L4481.43 956.679L4515.86 922.973ZM3810.55 855.561L3820.68 788.148H4153.42L4143.97 855.561H3810.55ZM3841.6 653.324L3830.8 720.736H4164.22L4174.34 653.324H3841.6ZM3851.05 585.237L3861.17 518.499H4550.95L4559.05 585.911L3851.05 585.237ZM3881.42 383.674L3871.3 451.087H4510.45L4474.01 426.144L4435.54 408.617L4357.25 391.09L4250.61 383.674H3881.42ZM4248.58 855.561L4258.71 788.148H4536.78L4527.33 855.561H4248.58ZM4274.23 687.03L4268.83 720.736H4546.9L4557.03 653.324H4273.56L4274.23 687.03ZM4121.02 1664.51L4131.82 1597.1H4438.91L4428.12 1664.51H4121.02ZM4152.07 1462.27L4141.94 1529.68H4449.04L4459.84 1462.27H4152.07ZM4162.19 1394.86L4171.64 1327.45H4480.76L4470.63 1394.86H4162.19ZM4192.56 1192.62L4182.44 1260.04H4490.88L4501.68 1192.62H4192.56Z" fill="url(#paint0_linear)"/>
</g>
</g>
<defs>
<filter id="filter0_d" x="539.178" y="368.431" width="4059.94" height="1339.79" filterUnits="userSpaceOnUse" color-interpolation-filters="sRGB">
<feFlood flood-opacity="0" result="BackgroundImageFix"/>
<feColorMatrix in="SourceAlpha" type="matrix" values="0 0 0 0 0 0 0 0 0 0 0 0 0 0 0 0 0 0 127 0"/>
<feOffset dx="10.9271" dy="14.5694"/>
<feGaussianBlur stdDeviation="14.5694"/>
<feColorMatrix type="matrix" values="0 0 0 0 0 0 0 0 0 0 0 0 0 0 0 0 0 0 0.5 0"/>
<feBlend mode="normal" in2="BackgroundImageFix" result="effect1_dropShadow"/>
<feBlend mode="normal" in="SourceGraphic" in2="effect1_dropShadow" result="shape"/>
</filter>
<linearGradient id="paint0_linear" x1="557.389" y1="1661.19" x2="4538.35" y2="1661.19" gradientUnits="userSpaceOnUse">
<stop stop-color="#FFA846"/>
<stop offset="1" stop-color="#FF8E0E"/>
</linearGradient>
</defs>
</svg>
