<?xml version="1.0" standalone="no"?>
<!DOCTYPE svg PUBLIC "-//W3C//DTD SVG 20010904//EN"
 "http://www.w3.org/TR/2001/REC-SVG-20010904/DTD/svg10.dtd">
<svg version="1.0" xmlns="http://www.w3.org/2000/svg"
 width="700.000000pt" height="700.000000pt" viewBox="0 0 700.000000 700.000000"
 preserveAspectRatio="xMidYMid meet">
<metadata>
Created by potrace 1.11, written by Peter Selinger 2001-2013
</metadata>
<g transform="translate(0.000000,700.000000) scale(0.100000,-0.100000)"
fill="#000000" stroke="none">
<path d="M695 6880 c-262 -35 -488 -236 -562 -500 -17 -62 -18 -190 -18 -2875
0 -3039 -3 -2849 53 -2980 81 -187 251 -335 452 -392 62 -17 179 -18 2880 -18
2701 0 2818 1 2880 18 233 66 421 254 487 487 17 62 18 179 18 2880 0 2699 -1
2818 -18 2880 -77 270 -299 465 -570 500 -88 11 -5515 11 -5602 0z m3320
-1201 c288 -19 510 -81 650 -183 l50 -36 -1094 0 -1094 0 7 53 c4 28 12 80 17
115 l11 62 647 0 c355 0 718 -5 806 -11z m853 -558 c7 -58 10 -111 8 -118 -4
-11 -221 -12 -1208 -7 -662 4 -1204 8 -1206 9 -2 2 4 51 12 109 9 59 16 109
16 111 0 3 532 4 1182 3 l1183 -3 13 -104z m-1302 -368 c-3 -10 -10 -54 -16
-98 -6 -44 -13 -90 -16 -102 l-4 -23 -570 0 c-449 0 -570 3 -570 13 0 6 7 60
17 120 l17 107 574 0 c541 0 573 -1 568 -17z m1300 -40 c-4 -32 -11 -86 -17
-121 l-11 -62 -477 2 c-417 3 -476 5 -472 18 1 8 5 61 8 118 l6 102 485 0 485
0 -7 -57z m-1376 -429 c0 -25 -17 -149 -26 -191 l-4 -23 -571 0 -572 0 6 38
c3 20 11 74 18 120 l11 82 569 0 569 0 0 -26z m1310 0 c0 -25 -17 -149 -26
-191 l-4 -23 -475 0 -475 0 0 28 c0 26 14 127 26 185 l6 27 474 0 474 0 0 -26z
m-125 -494 c-79 -80 -117 -101 -262 -144 l-123 -36 -1021 0 -1021 0 6 33 c3
17 10 66 16 107 6 41 13 81 15 88 4 9 258 12 1227 12 l1222 0 -59 -60z m-216
-428 c92 -36 170 -96 204 -157 15 -26 27 -49 27 -51 0 -2 -565 -4 -1255 -4
-690 0 -1255 3 -1255 6 0 13 31 210 35 222 4 9 230 12 1087 12 l1083 0 74 -28z
m-1172 -459 c-3 -16 -11 -70 -18 -120 l-13 -93 -574 0 -574 0 6 28 c3 15 10
61 16 102 6 41 14 83 16 93 5 16 41 17 576 17 l571 0 -6 -27z m1392 10 c0 -10
-8 -63 -17 -118 l-18 -100 -527 -3 c-290 -1 -527 1 -527 5 0 5 7 59 17 121
l16 112 529 0 c496 0 528 -1 527 -17z m-1462 -465 c-3 -13 -11 -67 -17 -120
l-12 -98 -575 0 -575 0 6 28 c3 15 10 63 16 107 7 44 13 86 16 93 3 9 126 12
575 12 l571 0 -5 -22z m1390 -5 c-3 -16 -11 -70 -18 -120 l-13 -93 -529 0
-530 0 6 38 c3 20 11 74 18 120 l11 82 530 0 531 0 -6 -27z m-1465 -438 c3 -4
-22 -192 -31 -232 -1 -2 -257 -3 -569 -3 l-569 0 18 118 c10 64 18 118 18 120
2 4 1128 2 1133 -3z m1392 -3 c2 -4 -3 -57 -12 -118 l-17 -109 -529 -3 -528
-2 6 32 c3 18 10 67 16 108 6 41 13 81 15 88 3 9 117 12 524 12 286 0 522 -4
525 -8z m-1464 -484 c0 -23 -15 -128 -26 -180 l-6 -28 -569 0 c-539 0 -570 1
-565 18 3 9 10 55 16 102 6 47 13 91 15 98 4 9 126 12 570 12 l565 0 0 -22z
m1396 0 c-3 -13 -10 -57 -16 -98 -6 -41 -14 -83 -16 -92 -5 -17 -39 -18 -531
-18 l-525 0 5 33 c4 17 12 69 18 115 l12 82 529 0 528 0 -4 -22z"/>
</g>
</svg>
